<mxfile host="app.diagrams.net" agent="Mozilla/5.0 (Windows NT 10.0; Win64; x64; rv:133.0) Gecko/20100101 Firefox/133.0" version="25.0.3">
  <diagram name="Page-1" id="4j_d7dZfUcVvjDVFFL8B">
    <mxGraphModel dx="1420" dy="704" grid="1" gridSize="10" guides="1" tooltips="1" connect="1" arrows="1" fold="1" page="1" pageScale="1" pageWidth="1169" pageHeight="1654" background="#FFF4C3" math="0" shadow="0">
      <root>
        <mxCell id="0" />
        <mxCell id="1" parent="0" />
        <mxCell id="HEdSnegyr2MToloitcwN-1" value="dsdfSDFsdSD" style="rounded=1;whiteSpace=wrap;html=1;fontSize=36;fontStyle=1;fillColor=#f5f5f5;fontColor=#333333;strokeColor=#666666;strokeWidth=2;" parent="1" vertex="1">
          <mxGeometry x="330" y="40" width="660" height="60" as="geometry" />
        </mxCell>
        <mxCell id="HEdSnegyr2MToloitcwN-3" value="" style="rounded=1;whiteSpace=wrap;html=1;strokeColor=#666666;strokeWidth=2;align=center;verticalAlign=middle;fontFamily=Tahoma;fontSize=15;fontColor=#333333;fillColor=#f5f5f5;" parent="1" vertex="1">
          <mxGeometry x="310" y="160" width="770" height="160" as="geometry" />
        </mxCell>
        <mxCell id="L4U3h64qGFHEtYubMuoR-28" value="" style="verticalLabelPosition=bottom;verticalAlign=top;html=1;shape=mxgraph.basic.donut;dx=10;strokeColor=none;fillColor=#10739E;fontSize=10;align=center;fillOpacity=20;" vertex="1" parent="1">
          <mxGeometry x="820" y="190" width="100" height="100" as="geometry" />
        </mxCell>
        <mxCell id="L4U3h64qGFHEtYubMuoR-29" value="&lt;div&gt;50%&lt;/div&gt;" style="verticalLabelPosition=middle;verticalAlign=middle;html=1;shape=mxgraph.basic.partConcEllipse;startAngle=0;endAngle=0.5;arcWidth=0.2;strokeColor=none;fillColor=#10739E;fontSize=22;fontColor=#10739E;align=center;fontStyle=1;whiteSpace=wrap;" vertex="1" parent="L4U3h64qGFHEtYubMuoR-28">
          <mxGeometry width="100" height="100" as="geometry" />
        </mxCell>
        <mxCell id="L4U3h64qGFHEtYubMuoR-56" value="&lt;div&gt;FsdfSDFGsdgasdgasd&lt;/div&gt;&lt;div&gt;sdgsdsdsdasds&lt;/div&gt;&lt;div&gt;qsdgsdqsdq&lt;/div&gt;&lt;div&gt;sgasgasgarg&lt;br&gt;&lt;/div&gt;" style="rounded=1;whiteSpace=wrap;html=1;fontSize=15;strokeWidth=2;fillColor=#f5f5f5;fontColor=#333333;strokeColor=#666666;fontFamily=Tahoma;" vertex="1" parent="1">
          <mxGeometry x="860" y="540" width="240" height="120" as="geometry" />
        </mxCell>
        <mxCell id="L4U3h64qGFHEtYubMuoR-57" value="" style="endArrow=classic;html=1;rounded=1;entryX=0.866;entryY=1.067;entryDx=0;entryDy=0;entryPerimeter=0;strokeWidth=4;curved=0;strokeColor=#808080;" edge="1" parent="1" source="L4U3h64qGFHEtYubMuoR-56" target="HEdSnegyr2MToloitcwN-3">
          <mxGeometry width="50" height="50" relative="1" as="geometry">
            <mxPoint x="560" y="390" as="sourcePoint" />
            <mxPoint x="610" y="340" as="targetPoint" />
          </mxGeometry>
        </mxCell>
        <mxCell id="L4U3h64qGFHEtYubMuoR-58" value="essai" style="endArrow=oval;html=1;fontSize=16;fontColor=#10739E;endFill=0;endSize=24;strokeWidth=5;labelBackgroundColor=none;verticalAlign=top;fontStyle=1;strokeColor=#10739E;rounded=0;" edge="1" parent="1">
          <mxGeometry x="-1" relative="1" as="geometry">
            <mxPoint x="220" y="500" as="sourcePoint" />
            <mxPoint x="320" y="400" as="targetPoint" />
          </mxGeometry>
        </mxCell>
        <mxCell id="L4U3h64qGFHEtYubMuoR-59" value="" style="image;html=1;image=img/lib/clip_art/people/Suit_Man_Black_128x128.png" vertex="1" parent="1">
          <mxGeometry x="480" y="200" width="80" height="80" as="geometry" />
        </mxCell>
        <mxCell id="L4U3h64qGFHEtYubMuoR-61" value="" style="image;html=1;image=img/lib/clip_art/people/Suit_Woman_Blue_128x128.png" vertex="1" parent="1">
          <mxGeometry x="920" y="190" width="80" height="80" as="geometry" />
        </mxCell>
        <mxCell id="L4U3h64qGFHEtYubMuoR-62" value="" style="verticalLabelPosition=bottom;verticalAlign=top;html=1;shape=mxgraph.basic.donut;dx=10;strokeColor=none;fillColor=#10739E;fontSize=10;align=center;fillOpacity=20;" vertex="1" parent="1">
          <mxGeometry x="370" y="200" width="100" height="100" as="geometry" />
        </mxCell>
        <mxCell id="L4U3h64qGFHEtYubMuoR-63" value="30%" style="verticalLabelPosition=middle;verticalAlign=middle;html=1;shape=mxgraph.basic.partConcEllipse;startAngle=0;endAngle=0.22371577164437328;arcWidth=0.2;strokeColor=none;fillColor=#10739E;fontSize=22;fontColor=#10739E;align=center;fontStyle=1;whiteSpace=wrap;" vertex="1" parent="L4U3h64qGFHEtYubMuoR-62">
          <mxGeometry width="100" height="100" as="geometry" />
        </mxCell>
      </root>
    </mxGraphModel>
  </diagram>
</mxfile>
